<svg xmlns="http://www.w3.org/2000/svg" viewBox="0 0 720 125.47"><defs><style>.cls-1{fill:#30262d;}.cls-2{fill:#66d7d1;}</style></defs><title>Coconut Logo Dark RGB</title><g id="Layer_2" data-name="Layer 2"><g id="Coconut_Logo" data-name="Coconut Logo"><path class="cls-1" d="M162,31.61c-26.32,0-46.13,16.13-46.13,47,0,30.35,19.86,46.48,46,46.48s45.78-15.63,45.78-46.48S188.36,31.61,162,31.61Zm-.25,71.54c-11.25,0-19.67-6.2-19.67-24.55s8.22-25.21,19.67-25.21,19.66,7,19.66,25.21h.25C181.7,96.3,173,103.15,161.79,103.15Z"/><path class="cls-1" d="M383,78.6c0-18.25-8.22-25.21-19.67-25.21S343.79,60.5,343.79,78.6s8.42,24.55,19.66,24.55,19.77-6.85,19.77-24.55Zm-65.55,0c0-30.86,19.82-47,46.13-47s45.73,16.13,45.73,47-19.66,46.48-45.78,46.48S317.47,109,317.47,78.6Z"/><path class="cls-1" d="M0,62.47C0,30.55,15.63,0,54.9,0c27.23,0,50.17,15.12,51.58,47.39a1.16,1.16,0,0,1-1.06,1.21h-23a1,1,0,0,1-.81-1.06c-1.91-15.12-11-23.84-26.11-23.84-17.9,0-28.79,14-28.79,38.56s10.89,39.13,28.94,39.13a25.2,25.2,0,0,0,26-23.85,1,1,0,0,1,.3-.76,1,1,0,0,1,.76-.3h23a1.37,1.37,0,0,1,1.06,1.41c-1.76,32.12-24.4,47-51.57,47C15.48,124.88,0,94.53,0,62.47Z"/><path class="cls-1" d="M217.75,78.6c0-30.86,19.81-47,46.13-47,23.34,0,41.59,13,43.51,37.36a1,1,0,0,1-.23.87,1,1,0,0,1-.83.34H283.69a1.31,1.31,0,0,1-1.41-1.06A16.93,16.93,0,0,0,264,53.49c-11.24,0-19.66,6.86-19.66,25.21s8.42,24.55,19.66,24.55a17.07,17.07,0,0,0,18.4-15.63,1.33,1.33,0,0,1,1.21-1.21h22.64a1.21,1.21,0,0,1,1.21,1.21c-1.76,24.56-20.17,37.56-43.51,37.56C237.92,125.08,217.75,109,217.75,78.6Z"/><path class="cls-1" d="M420.78,121.91V34.59A1.21,1.21,0,0,1,422,33.38h23.49a1.21,1.21,0,0,1,1.21,1.21v9.47a34.76,34.76,0,0,1,28.59-12.45c18.6,0,31.05,12.81,31.05,32.12v58.18a1.21,1.21,0,0,1-1.21,1.21H481.28a1.21,1.21,0,0,1-1.21-1.21v-51c0-13-5.6-17.9-15.13-17.9-10.53,0-18.05,6.65-18.05,19.46v49.46a1,1,0,0,1-.25.85,1.08,1.08,0,0,1-.81.36h-24A1.21,1.21,0,0,1,420.78,121.91Z"/><path class="cls-1" d="M521.06,92.62v-58a1.21,1.21,0,0,1,1.21-1.21h23.84a1.21,1.21,0,0,1,1.21,1.21V86c0,11,5,17,15.78,17s17.2-7.56,17.2-18.4v-50a1.15,1.15,0,0,1,1.05-1.21h24a1,1,0,0,1,.81.36,1,1,0,0,1,.25.85v87.32a1.06,1.06,0,0,1-1.06,1.21H581.91a1.21,1.21,0,0,1-1.21-1.21v-9.63a32.54,32.54,0,0,1-27.38,13.16,31,31,0,0,1-32.26-32.82Z"/><path class="cls-1" d="M629.65,100.33V51.22H618.41a1,1,0,0,1-.85-.25,1.08,1.08,0,0,1-.36-.81V34.54a1.21,1.21,0,0,1,1.21-1.21h11.24V10.39a1.08,1.08,0,0,1,.25-.85,1,1,0,0,1,.81-.36h23.85a1.17,1.17,0,0,1,.85.35,1.2,1.2,0,0,1,.36.86v23H673a1,1,0,0,1,.81.36,1.08,1.08,0,0,1,.25.85V50.42a.94.94,0,0,1-.25.81.92.92,0,0,1-.81.25H655.77v42.6c0,6.5,2.12,8.92,7.56,8.92H673a.91.91,0,0,1,1.06,1.06v18a1.09,1.09,0,0,1-.25.85,1.08,1.08,0,0,1-.81.36H650.68C637.17,123.17,629.65,114.55,629.65,100.33Z"/><path class="cls-2" d="M688.44,121.91V96.14a1.07,1.07,0,0,1,.36-.8,1,1,0,0,1,.85-.25h29.14a1,1,0,0,1,.85.25,1.07,1.07,0,0,1,.36.8v25.77a1.21,1.21,0,0,1-1.21,1.21H689.65A1.21,1.21,0,0,1,688.44,121.91Z"/></g></g></svg>