<svg xmlns="http://www.w3.org/2000/svg" width="84" height="53" viewBox="0 0 84 53" fill="none">
<path d="M5.99023 45.545C6.0525 45.4925 6.19507 45.3741 6.41798 45.1896C6.64089 45.0048 6.86451 44.8241 7.0888 44.6476C7.31308 44.4715 7.57022 44.2688 7.8602 44.0395C8.14985 43.8098 8.3843 43.6289 8.56352 43.497C8.7424 43.365 8.94516 43.2109 9.17185 43.0348C9.39855 42.859 9.63316 42.6793 9.87567 42.4955C10.1185 42.3114 10.2878 42.1819 10.3834 42.107C10.479 42.032 10.6994 41.8693 11.0444 41.6188C11.3894 41.3688 11.7071 41.1364 11.9975 40.9215C12.2878 40.7067 12.6667 40.4204 13.1342 40.0625C13.602 39.7047 13.978 39.4134 14.2621 39.1885C14.5463 38.9636 14.8057 38.7571 15.0403 38.5688C15.2749 38.3802 15.5482 38.1626 15.8602 37.916C16.1722 37.6694 16.5831 37.338 17.0929 36.9218C17.6023 36.5053 17.9656 36.207 18.1826 36.027C18.3997 35.8471 18.8617 35.447 19.5686 34.8267C20.2487 34.1866 20.8276 33.6356 21.3054 33.1738C21.7836 32.7124 22.2148 32.2803 22.599 31.8776C22.9836 31.4752 23.3691 31.0335 23.7554 30.5524C24.1413 30.0716 24.4191 29.7142 24.5887 29.4804C24.7583 29.2465 24.874 29.0795 24.936 28.9794C24.9979 28.8795 25.0961 28.7075 25.2306 28.4633C25.3655 28.2191 25.5411 27.8313 25.7574 27.2997C25.9738 26.7681 26.1019 26.425 26.1418 26.2702C26.1821 26.1151 26.2198 25.9483 26.2548 25.7697C26.2896 25.5911 26.3087 25.4886 26.3121 25.462C26.3152 25.435 26.3223 25.3192 26.3333 25.1144C26.3439 24.9095 26.3377 24.7028 26.3147 24.4942C26.2913 24.2856 26.2235 24.006 26.1114 23.6554C25.9899 23.4351 25.8066 23.1965 25.5614 22.9399C25.3505 22.827 25.2156 22.7572 25.1568 22.7306C25.0983 22.704 24.975 22.6761 24.7868 22.6467C24.5986 22.6177 24.4944 22.6013 24.4741 22.5975C24.4542 22.5937 24.3778 22.5943 24.245 22.5995C24.1126 22.605 23.9793 22.6232 23.8451 22.6539C23.711 22.6843 23.4915 22.7689 23.1867 22.9078C22.882 23.047 22.5514 23.2606 22.195 23.5487C21.8383 23.8368 21.6044 24.0426 21.4933 24.1662C21.3818 24.2902 21.317 24.3614 21.2987 24.3797C21.2805 24.3984 21.2182 24.4783 21.1119 24.6195C21.0056 24.7605 20.9133 24.8925 20.8348 25.0155C20.7564 25.1384 20.6645 25.285 20.5593 25.4553C20.4537 25.6255 20.3159 25.8865 20.146 26.2381C19.9761 26.5897 19.8027 27.0073 19.6259 27.4908C19.4491 27.9744 19.3564 28.2287 19.3478 28.2536C19.3388 28.2784 19.2836 28.5394 19.1821 29.0364C19.0806 29.5338 19.0088 29.9869 18.9665 30.3959C18.9245 30.8048 18.9002 31.2281 18.8937 31.6657C18.8875 32.103 18.9176 32.6183 18.984 33.2117C19.05 33.8054 19.1015 34.175 19.1383 34.3205C19.1754 34.4659 19.2064 34.5834 19.2311 34.6732C19.2559 34.763 19.382 35.0604 19.6094 35.5654C19.8367 36.07 20.0069 36.4004 20.1197 36.5565C20.2325 36.7126 20.3206 36.8313 20.3839 36.9125C20.4468 36.9936 20.5058 37.0623 20.5609 37.1186C20.6155 37.1749 20.7134 37.2699 20.8544 37.4036C20.9951 37.5373 21.1437 37.6594 21.3003 37.7699C21.4568 37.8808 21.5803 37.9582 21.6708 38.002C21.7612 38.0456 21.8835 38.0936 22.0377 38.1461C22.1921 38.1986 22.3272 38.236 22.4432 38.2584C22.5591 38.2809 22.7731 38.3002 23.0851 38.3165C23.3971 38.3327 23.6461 38.3344 23.8322 38.3217C24.018 38.3092 24.2622 38.2702 24.565 38.2045C24.8677 38.1389 25.0808 38.0897 25.2043 38.0569C25.3274 38.0241 25.4874 37.9697 25.6841 37.8938C25.8812 37.8178 26.0835 37.7288 26.2909 37.6269C26.498 37.525 26.7085 37.4145 26.9225 37.2953C27.1365 37.1762 27.3496 37.0432 27.5618 36.8964C27.7737 36.7493 27.9745 36.5971 28.164 36.4399C28.3535 36.2824 28.5735 36.0886 28.824 35.8582C29.0744 35.6275 29.2939 35.4136 29.4824 35.2168C29.6709 35.0195 29.8434 34.8298 29.9999 34.6478C30.1567 34.4661 30.3253 34.2648 30.5055 34.0437C30.6861 33.823 30.9184 33.5074 31.2022 33.0967C31.4863 32.686 31.6654 32.4186 31.7393 32.2946C31.813 32.1706 31.9209 31.9722 32.0634 31.6994C32.2061 31.4268 32.396 31.0258 32.633 30.4963C32.8704 29.9668 33.0227 29.6227 33.0902 29.4638C33.1573 29.3046 33.2272 29.1256 33.3002 28.927C33.3728 28.7284 33.4515 28.5093 33.5365 28.2696C33.6211 28.0296 33.7198 27.725 33.8327 27.3561C33.9826 26.8453 34.0907 26.4438 34.1567 26.1516C34.2231 25.8594 34.2901 25.542 34.3575 25.1994C34.4252 24.8567 34.4839 24.4244 34.5334 23.9025C34.5829 23.3802 34.6005 22.9515 34.5861 22.6161C34.5716 22.2807 34.5327 21.9671 34.4694 21.6753C34.4065 21.3834 34.3726 21.2271 34.3678 21.2064C34.363 21.1857 34.3248 21.1037 34.2532 20.9607C34.1813 20.8181 34.0998 20.6948 34.0087 20.5909C33.9178 20.4873 33.821 20.403 33.7182 20.338C33.6156 20.2731 33.5611 20.2377 33.5546 20.2318C33.5484 20.2263 33.4999 20.2122 33.4091 20.1898C33.3179 20.1677 33.1065 20.1666 32.7749 20.1862L32.2548 20.41L31.7218 20.8509C31.4321 21.2109 31.203 21.5643 31.0345 21.9114C30.8659 22.2589 30.7512 22.563 30.6903 22.8238C30.6294 23.0849 30.5924 23.354 30.5794 23.631C30.5663 23.908 30.5613 24.0593 30.5644 24.0849C30.5675 24.1101 30.5825 24.2165 30.6093 24.404C30.6365 24.5916 30.6633 24.7433 30.6898 24.859C30.7166 24.975 30.7704 25.1232 30.8513 25.3035C30.9318 25.4834 30.9934 25.6131 31.036 25.6925C31.0783 25.772 31.1313 25.8503 31.1949 25.9273C31.2582 26.0047 31.3016 26.0578 31.325 26.0868C31.3483 26.1162 31.39 26.1559 31.4499 26.206C31.5097 26.256 31.5917 26.3115 31.6959 26.3723C31.8002 26.4334 31.8898 26.479 31.9648 26.509C32.0394 26.5394 32.1671 26.5725 32.3477 26.6081C32.5283 26.6433 32.6286 26.663 32.6485 26.6671C32.6688 26.6709 32.7765 26.6714 32.9715 26.6687C33.1669 26.6659 33.5325 26.5668 34.0685 26.3713C34.6048 26.1754 34.9555 26.0316 35.1206 25.9397C35.2858 25.8475 35.5048 25.7039 35.778 25.5091C36.0511 25.314 36.2163 25.1949 36.2734 25.1517C36.3305 25.1082 36.4176 25.0346 36.535 24.931C36.6526 24.8277 36.8064 24.6788 36.9963 24.4843C37.1862 24.2902 37.3199 24.152 37.3977 24.0698C37.4751 23.988 37.6244 23.8174 37.8456 23.5581C38.0668 23.299 38.2779 23.0423 38.4792 22.7881C38.6804 22.5339 38.8595 22.3004 39.0163 22.0876C39.1732 21.8749 39.2852 21.7227 39.3522 21.6311C39.419 21.5393 39.4858 21.4463 39.5525 21.352C39.6189 21.2577 39.7451 21.0967 39.9312 20.869C39.945 20.8763 39.9004 21.0132 39.7976 21.2799C39.6947 21.5469 39.6299 21.7125 39.6031 21.7767C39.5762 21.841 39.537 21.9375 39.4854 22.0664C39.4341 22.1952 39.3418 22.445 39.2083 22.8156C39.0752 23.1858 38.9573 23.5405 38.8548 23.8797C38.7523 24.2189 38.6431 24.6563 38.5272 25.192C38.4113 25.7274 38.3333 26.294 38.2934 26.8919C38.2532 27.4898 38.2456 27.9422 38.2708 28.2489C38.2959 28.5552 38.3528 28.8761 38.4415 29.2115C38.5299 29.5468 38.5976 29.7668 38.6443 29.8715C38.6911 29.9761 38.7771 30.1165 38.9023 30.2927C39.0275 30.4688 39.1772 30.6384 39.3512 30.801L40.02 31.157L40.5442 31.3268C40.8524 31.3686 41.0581 31.3972 41.1613 31.4124C41.5301 31.383 41.7941 31.3433 41.9534 31.2932C42.1126 31.2428 42.2809 31.182 42.458 31.1108C42.6352 31.0397 42.8674 30.916 43.1546 30.7398C43.4415 30.5637 43.6393 30.4327 43.748 30.3471C43.8571 30.2618 44.054 30.0793 44.3388 29.7995C44.624 29.5201 44.822 29.3146 44.9327 29.183C45.0435 29.0514 45.223 28.8292 45.4714 28.5167C45.7201 28.2041 45.8574 28.0276 45.8832 27.9872C45.9093 27.9468 46.0452 27.7419 46.2908 27.3727C46.5364 27.0035 46.813 26.5566 47.1205 26.0319M46.4353 27.152C46.7081 26.7817 46.9856 26.2222 47.4087 25.5491C47.5831 25.2202 47.7485 24.9026 47.9051 24.5962C48.0619 24.2899 48.1884 24.0414 48.2844 23.8507L48.5274 23.3694C48.5931 23.2392 48.7255 22.942 48.9247 22.4778C49.1239 22.0139 49.2615 21.7048 49.3375 21.5504C49.4135 21.3963 49.4646 21.2941 49.4907 21.2436C49.5168 21.1932 49.5896 21.0314 49.709 20.7582C49.8287 20.485 49.9298 20.274 50.0124 20.1251C50.0949 19.9759 50.1575 19.8686 50.2002 19.8033C50.2432 19.738 50.2876 19.6799 50.3333 19.6288C50.3788 19.5773 50.4173 19.6013 50.449 19.7007C50.481 19.8006 50.5002 19.8878 50.5067 19.9624C50.5132 20.0371 50.5176 20.117 50.5197 20.2023C50.5221 20.2876 50.5241 20.4171 50.5258 20.5908C50.5276 20.7649 50.5243 21.0043 50.516 21.3089C50.5078 21.6136 50.5005 21.848 50.4943 22.0124C50.4885 22.1765 50.4858 22.3254 50.4862 22.4591C50.4865 22.5931 50.4838 22.7519 50.4783 22.9357C50.4732 23.1194 50.4763 23.3834 50.4877 23.7274C50.4987 24.0711 50.5169 24.4539 50.5423 24.876C50.5674 25.2981 50.5888 25.5825 50.6063 25.7293C50.6239 25.8761 50.6375 25.9784 50.6471 26.036C50.6568 26.0937 50.681 26.1837 50.7198 26.306C50.7584 26.4279 50.7909 26.5246 50.8173 26.5961C50.8442 26.6673 50.9201 26.7842 51.045 26.9469C51.2999 26.7884 51.4651 26.6678 51.5408 26.5853C51.6168 26.5024 51.6736 26.4397 51.7111 26.3972C51.7486 26.3547 51.7982 26.2932 51.8602 26.2128C51.9217 26.1323 51.9923 26.0231 52.0718 25.8853C52.1516 25.7475 52.2271 25.6198 52.2983 25.5024C52.3695 25.3853 52.4692 25.2259 52.5975 25.0241C52.7255 24.8228 52.862 24.5907 53.0068 24.3278C53.1516 24.065 53.3208 23.7646 53.5145 23.4268C53.7081 23.089 53.8564 22.8262 53.9593 22.6383C54.0621 22.4504 54.158 22.273 54.2471 22.1058C54.3362 21.9383 54.4795 21.6821 54.677 21.3374C54.8744 20.9927 55.0541 20.6867 55.2157 20.4193C55.3778 20.1523 55.4958 19.9582 55.5701 19.837C55.6444 19.7161 55.7281 19.5861 55.8209 19.4469C55.9138 19.3077 56.1161 18.9998 56.4278 18.5231C56.705 18.156 56.9589 17.8309 57.1894 17.548C57.4202 17.2651 57.6415 17.0107 57.8534 16.7844C58.0657 16.5585 58.2282 16.3984 58.3411 16.3041C58.4539 16.2095 58.5697 16.1235 58.6884 16.0461C58.8067 15.9687 58.9016 15.912 58.9732 15.8761C59.0447 15.8402 59.1948 15.7992 59.4236 15.7529L59.5547 15.8958C59.5757 15.9397 59.6486 16.1401 59.7735 16.4973C59.8771 17.0081 59.9618 17.4856 60.0279 17.9294C60.0939 18.3732 60.1539 18.7746 60.2079 19.1334C60.2619 19.492 60.2997 19.7535 60.3214 19.9183C60.3434 20.0831 60.366 20.234 60.389 20.3711C60.4124 20.5083 60.4515 20.7418 60.5062 21.0716C60.5351 21.1597 60.574 21.3125 60.6228 21.5301C60.672 21.7477 60.7518 22.0139 60.8622 22.3285C60.973 22.6435 61.0958 22.9332 61.2307 23.1974C61.3655 23.4613 61.4613 23.6374 61.518 23.7259C61.5748 23.8139 61.654 23.9329 61.7559 24.0828C61.858 24.2324 62.0454 24.4593 62.3178 24.7636C62.6064 24.9971 62.8323 25.162 62.9953 25.2584C63.1584 25.3551 63.2846 25.4241 63.374 25.4656C63.4638 25.507 63.6059 25.5578 63.8003 25.6179C63.9943 25.6783 64.265 25.7305 64.6125 25.7743C64.9599 25.8186 65.2449 25.834 65.4674 25.8205C65.69 25.8074 65.9132 25.7858 66.1371 25.7558C66.3614 25.7257 66.6564 25.6633 67.0221 25.5687C67.3874 25.474 67.7211 25.3725 68.0231 25.2641C68.3251 25.1553 68.7159 24.9845 69.1954 24.7517C69.6749 24.5185 70.0004 24.3529 70.1717 24.2548C70.343 24.1567 70.7216 23.9067 71.3074 23.5046C71.8932 23.1026 72.3643 22.7638 72.7207 22.4882C73.0774 22.2122 73.4942 21.8648 73.971 21.4462C74.4478 21.0279 74.8076 20.7031 75.0505 20.4717C75.293 20.2399 75.5697 19.9741 75.8806 19.6743C76.1916 19.3748 76.3801 19.1895 76.4461 19.1184C76.5122 19.0476 76.658 18.893 76.8833 18.6547C77.1089 18.4164 77.3228 18.1918 77.5251 17.9811C77.7274 17.7704 77.9001 17.5843 78.0432 17.4227C78.1867 17.261 78.3377 17.0924 78.4963 16.917C78.6552 16.7412 78.7807 16.6038 78.8729 16.5046C78.9655 16.4055 79.0891 16.2697 79.2439 16.0973C79.3987 15.9253 79.5404 15.7706 79.6691 15.6331C79.7981 15.4953 79.9373 15.3431 80.0866 15.1762C80.2359 15.0094 80.3347 14.9007 80.3832 14.8503C80.4314 14.7999 80.5437 14.6791 80.7202 14.4881C80.8967 14.2971 81.1266 14.0383 81.41 13.7115L82.0004 13.0334" stroke="#192822" stroke-width="3" stroke-linecap="round" stroke-linejoin="round"/>
<path d="M2 27.4328C2.75576 26.9074 3.31098 26.5187 3.66564 26.2665C4.01995 26.0147 4.30456 25.8127 4.51956 25.6604C4.73421 25.5084 4.96866 25.3435 5.22287 25.1656C5.47743 24.9877 5.72632 24.8128 5.96953 24.6408C6.21307 24.4688 6.53056 24.2412 6.92202 23.958C7.31314 23.6748 7.59852 23.4692 7.77808 23.3414C7.95765 23.2136 8.12377 23.0938 8.2765 22.9819C8.42889 22.8703 8.58511 22.7574 8.74506 22.643C8.90537 22.529 9.11864 22.3731 9.38489 22.1751C9.65114 21.9772 9.93888 21.7643 10.2481 21.5364C10.557 21.3084 10.9155 21.0377 11.3235 20.7244C11.7314 20.4112 12.0331 20.1783 12.2285 20.0256C12.4239 19.8729 12.6451 19.6963 12.8921 19.4956C13.1391 19.2953 13.4346 19.0482 13.7786 18.7546C14.1229 18.461 14.3043 18.3057 14.3229 18.2884C14.3418 18.2711 14.6024 18.0351 15.1046 17.5802C15.6069 17.125 16.0745 16.6897 16.5076 16.2746C16.9404 15.8591 17.2852 15.5184 17.5422 15.2524C17.7992 14.9865 18.0742 14.6939 18.3673 14.3747C18.66 14.0552 18.8869 13.8029 19.0478 13.6178C19.2092 13.4323 19.3539 13.2603 19.4818 13.1017C19.6098 12.9429 19.831 12.6564 20.1454 12.2422C20.4595 11.8278 20.7004 11.4983 20.8683 11.2537C21.0358 11.0092 21.2231 10.7125 21.4302 10.3636C21.6366 10.0148 21.79 9.74518 21.8905 9.55487C21.9906 9.36455 22.1156 9.1014 22.2656 8.76533C22.4156 8.42925 22.5495 8.09207 22.6675 7.75392C22.7855 7.41578 22.8865 7.08661 22.9704 6.76643C23.0547 6.44624 23.1209 6.06617 23.1691 5.62613C23.2176 5.18609 23.2283 4.80413 23.2011 4.48014C23.1736 4.15616 23.1469 3.93904 23.1211 3.82885C23.0953 3.71867 23.0685 3.62334 23.0406 3.54286C23.0127 3.46204 22.9905 3.39901 22.974 3.35376C22.9575 3.30851 22.929 3.24327 22.8884 3.15796C22.8481 3.07299 22.8034 2.99264 22.7542 2.917C22.7054 2.84135 22.6383 2.75343 22.553 2.65327C22.4681 2.55276 22.3879 2.47414 22.3125 2.41749C22.2376 2.3605 22.1516 2.30251 22.0545 2.24345C21.9579 2.18473 21.8471 2.12959 21.7222 2.07812C21.2864 2.00317 20.9462 1.98219 20.7016 2.01501C20.4567 2.04747 20.2455 2.09411 20.068 2.1549C19.8908 2.21604 19.6937 2.2986 19.4767 2.40257C19.2596 2.50653 19.0597 2.61765 18.8771 2.73612C18.6948 2.85459 18.4066 3.0848 18.0128 3.42675C17.6189 3.76904 17.2553 4.13538 16.922 4.52568C16.589 4.91598 16.3558 5.20088 16.2223 5.38049C16.0888 5.5601 15.8972 5.83538 15.6475 6.20633C15.3977 6.57729 15.225 6.84343 15.1294 7.00473C15.0338 7.16603 14.9493 7.31163 14.8761 7.4415C14.8028 7.57136 14.695 7.77778 14.5526 8.06066C14.4105 8.34319 14.2586 8.65234 14.0969 8.98807C13.9352 9.32414 13.7369 9.77039 13.502 10.3268C13.267 10.8833 13.1102 11.2725 13.0314 11.4946C12.953 11.7167 12.8326 12.077 12.6702 12.5754C12.5082 13.0735 12.3534 13.5932 12.2058 14.1348C12.0582 14.6764 11.9531 15.0827 11.8905 15.3539C11.8279 15.6253 11.7491 15.9901 11.6542 16.4481C11.5589 16.9061 11.4889 17.2638 11.4442 17.5211C11.3998 17.7781 11.3515 18.0943 11.2992 18.4698C11.2469 18.8452 11.2025 19.2007 11.166 19.5365C11.1292 19.8725 11.11 20.046 11.1083 20.0567C11.1066 20.0678 11.0861 20.3045 11.0469 20.7669C11.0073 21.2298 10.9712 21.8977 10.9385 22.7705C10.9055 23.6433 10.8886 24.1813 10.888 24.3844C10.8876 24.5875 10.9043 25.2494 10.938 26.3703C10.9717 27.4914 11.0161 28.3784 11.0711 29.0312C11.1265 29.684 11.2011 30.3881 11.295 31.1434C11.3893 31.8985 11.4923 32.5765 11.6041 33.1775C11.7163 33.7788 11.83 34.3343 11.9452 34.8437C12.0608 35.3532 12.1629 35.7799 12.2517 36.1239C12.3401 36.4679 12.4299 36.79 12.5211 37.0902C12.6123 37.39 12.7309 37.7589 12.8771 38.1968C13.0236 38.6348 13.1183 38.9146 13.1609 39.0362C13.2039 39.1581 13.3032 39.4167 13.4587 39.8122C13.6145 40.2073 13.7736 40.5899 13.9359 40.9598C14.0983 41.3298 14.2412 41.6501 14.3647 41.9209C14.4882 42.1913 14.5826 42.3915 14.648 42.5213C14.7133 42.6516 14.8069 42.8381 14.9287 43.0809C15.0508 43.3241 15.2039 43.6109 15.3879 43.9414C15.5723 44.272 15.8203 44.6829 16.132 45.1741C16.444 45.6652 16.6656 46.0013 16.7966 46.1823C16.9277 46.3636 17.0527 46.5297 17.1717 46.6807C17.2911 46.832 17.3938 46.9618 17.4798 47.0703C17.5661 47.1787 17.6553 47.2899 17.7475 47.4039C17.8397 47.5179 18.0302 47.73 18.3188 48.0402C18.6074 48.35 18.8046 48.5577 18.9106 48.6634C19.0169 48.7691 19.1342 48.8871 19.2625 49.0173C19.3905 49.1479 19.5845 49.3316 19.8446 49.5685C20.1046 49.8051 20.2601 49.9476 20.311 49.9959C20.3616 50.0446 20.5114 50.1685 20.7605 50.3674C21.0092 50.5667 21.264 50.7776 21.5251 51" stroke="#192822" stroke-width="3" stroke-linecap="round" stroke-linejoin="round"/>
</svg>